<mxfile host="65bd71144e">
    <diagram id="nwgbKRe9Y9mAOjcXscMk" name="Page-1">
        <mxGraphModel dx="872" dy="748" grid="1" gridSize="10" guides="1" tooltips="1" connect="1" arrows="1" fold="1" page="1" pageScale="1" pageWidth="850" pageHeight="1100" math="0" shadow="0">
            <root>
                <mxCell id="0"/>
                <mxCell id="1" parent="0"/>
                <mxCell id="2" value="1" style="rounded=1;whiteSpace=wrap;html=1;verticalAlign=middle;arcSize=10;fillColor=#a20025;fontColor=#ffffff;strokeColor=#000000;fontSize=22;" vertex="1" parent="1">
                    <mxGeometry x="190" y="60" width="70" height="40" as="geometry"/>
                </mxCell>
                <mxCell id="3" value="+" style="rounded=1;whiteSpace=wrap;html=1;verticalAlign=middle;arcSize=10;fillColor=#a20025;fontColor=#ffffff;strokeColor=#000000;fontSize=22;" vertex="1" parent="1">
                    <mxGeometry x="275" y="60" width="70" height="40" as="geometry"/>
                </mxCell>
                <mxCell id="4" value="2" style="rounded=1;whiteSpace=wrap;html=1;verticalAlign=middle;arcSize=10;fillColor=#a20025;fontColor=#ffffff;strokeColor=#000000;fontSize=22;" vertex="1" parent="1">
                    <mxGeometry x="365" y="60" width="70" height="40" as="geometry"/>
                </mxCell>
                <mxCell id="5" value="+" style="rounded=1;whiteSpace=wrap;html=1;verticalAlign=middle;arcSize=10;fillColor=#a20025;fontColor=#ffffff;strokeColor=#000000;fontSize=22;" vertex="1" parent="1">
                    <mxGeometry x="455" y="60" width="70" height="40" as="geometry"/>
                </mxCell>
                <mxCell id="6" value="3" style="rounded=1;whiteSpace=wrap;html=1;verticalAlign=middle;arcSize=10;fillColor=#a20025;fontColor=#ffffff;strokeColor=#000000;fontSize=22;" vertex="1" parent="1">
                    <mxGeometry x="545" y="60" width="70" height="40" as="geometry"/>
                </mxCell>
                <mxCell id="7" value="" style="shape=curlyBracket;whiteSpace=wrap;html=1;rounded=1;flipH=1;rotation=-90;" vertex="1" parent="1">
                    <mxGeometry x="300" y="-80" width="20" height="240" as="geometry"/>
                </mxCell>
                <mxCell id="8" value="" style="shape=curlyBracket;whiteSpace=wrap;html=1;rounded=1;flipH=1;rotation=-90;" vertex="1" parent="1">
                    <mxGeometry x="570" y="5" width="20" height="70" as="geometry"/>
                </mxCell>
                <mxCell id="9" value="" style="shape=curlyBracket;whiteSpace=wrap;html=1;rounded=1;flipH=1;rotation=90;" vertex="1" parent="1">
                    <mxGeometry x="480" y="5" width="20" height="240" as="geometry"/>
                </mxCell>
                <mxCell id="10" value="" style="shape=curlyBracket;whiteSpace=wrap;html=1;rounded=1;flipH=1;rotation=90;" vertex="1" parent="1">
                    <mxGeometry x="215" y="90" width="20" height="70" as="geometry"/>
                </mxCell>
                <mxCell id="11" value="expr" style="text;html=1;strokeColor=none;fillColor=none;align=center;verticalAlign=middle;whiteSpace=wrap;rounded=0;fontSize=20;" vertex="1" parent="1">
                    <mxGeometry x="270" y="5" width="80" height="20" as="geometry"/>
                </mxCell>
                <mxCell id="12" value="term" style="text;html=1;strokeColor=none;fillColor=none;align=center;verticalAlign=middle;whiteSpace=wrap;rounded=0;fontSize=20;" vertex="1" parent="1">
                    <mxGeometry x="540" y="5" width="80" height="20" as="geometry"/>
                </mxCell>
                <mxCell id="13" value="term" style="text;html=1;strokeColor=none;fillColor=none;align=center;verticalAlign=middle;whiteSpace=wrap;rounded=0;fontSize=20;" vertex="1" parent="1">
                    <mxGeometry x="190" y="140" width="80" height="20" as="geometry"/>
                </mxCell>
                <mxCell id="14" value="expr" style="text;html=1;strokeColor=none;fillColor=none;align=center;verticalAlign=middle;whiteSpace=wrap;rounded=0;fontSize=20;" vertex="1" parent="1">
                    <mxGeometry x="455" y="140" width="80" height="20" as="geometry"/>
                </mxCell>
                <mxCell id="15" value="Left Associative:" style="text;html=1;strokeColor=none;fillColor=none;align=right;verticalAlign=middle;whiteSpace=wrap;rounded=0;fontSize=20;" vertex="1" parent="1">
                    <mxGeometry x="30" y="10" width="150" height="20" as="geometry"/>
                </mxCell>
                <mxCell id="16" value="Right Associative:" style="text;html=1;strokeColor=none;fillColor=none;align=right;verticalAlign=middle;whiteSpace=wrap;rounded=0;fontSize=20;" vertex="1" parent="1">
                    <mxGeometry x="10" y="140" width="170" height="20" as="geometry"/>
                </mxCell>
                <mxCell id="17" value="+" style="text;html=1;strokeColor=none;fillColor=none;align=center;verticalAlign=middle;whiteSpace=wrap;rounded=0;fontSize=20;" vertex="1" parent="1">
                    <mxGeometry x="445" y="5" width="80" height="20" as="geometry"/>
                </mxCell>
                <mxCell id="18" value="+" style="text;html=1;strokeColor=none;fillColor=none;align=center;verticalAlign=middle;whiteSpace=wrap;rounded=0;fontSize=20;" vertex="1" parent="1">
                    <mxGeometry x="270" y="140" width="80" height="20" as="geometry"/>
                </mxCell>
                <mxCell id="19" value="" style="shape=curlyBracket;whiteSpace=wrap;html=1;rounded=1;flipH=1;rotation=0;" vertex="1" parent="1">
                    <mxGeometry x="650" y="40" width="20" height="85" as="geometry"/>
                </mxCell>
                <mxCell id="20" value="expr" style="text;html=1;strokeColor=none;fillColor=none;align=center;verticalAlign=middle;whiteSpace=wrap;rounded=0;fontSize=20;" vertex="1" parent="1">
                    <mxGeometry x="670" y="70" width="60" height="20" as="geometry"/>
                </mxCell>
            </root>
        </mxGraphModel>
    </diagram>
</mxfile>